<svg id="Layer_1" data-name="Layer 1" xmlns="http://www.w3.org/2000/svg" viewBox="0 0 200.49 97.47"><defs><style>.cls-1{fill:#fff;}.cls-1,.cls-2{fill-rule:evenodd;}.cls-2{fill:#055782;}</style></defs><title>info</title><path class="cls-1" d="M315.25,384.87c4.2-1.92,8.9-2.23,13.45-1.94a19.53,19.53,0,0,1,5.08,1c-.06,4,0,8.1,0,12.13-3.1-1.06-6.62-1.8-9.73-.4-2.38,1.08-3.5,3.76-3.6,6.25,0,2.18-.07,4.37,0,6.55,3.84-.12,7.7,0,11.53,0,0,3.8-.05,7.62,0,11.43A24.32,24.32,0,0,1,348.31,408a38,38,0,0,1,19,.66,23.2,23.2,0,0,1,13.8,12c2.68,5.46,2.94,11.74,2.26,17.7A24.88,24.88,0,0,1,375,454.32c-4.7,4.08-11,5.85-17.12,6.1-7,.3-14.58-1-20.15-5.62a24,24,0,0,1-8.63-16.06c-.72-6.32-.18-13,2.82-18.7-3.85,0-7.7,0-11.53,0q0,19.54,0,39.12H304.74c0-13.05,0-26.1,0-39.12-2.85,0-5.7,0-8.56,0,0-3.9,0-7.8,0-11.7,2.82.16,5.64,0,8.45.14.35-3.74-.3-7.56.6-11.26a17.65,17.65,0,0,1,10-12.34m38.33,34.63a10.21,10.21,0,0,0-6.78,5c-2,3.6-2.23,7.9-1.94,12,.3,3.45,1.32,7.12,4,9.46s6.7,2.74,10.2,2.2a9.31,9.31,0,0,0,6.87-5.23c1.7-3.56,1.85-7.6,1.73-11.46-.24-3.5-1.1-7.3-3.77-9.77s-6.8-2.84-10.33-2.22ZM230.25,384.75c3.37-.9,7.42-.6,10.07,1.9,3.47,3.2,3,9.58-1,12.15s-10.28,2.2-13.26-1.8a8.16,8.16,0,0,1-1.07-7.52,8,8,0,0,1,5.23-4.74ZM270,409.28A20.68,20.68,0,0,1,284.88,408a13.28,13.28,0,0,1,8.26,6.7c2.2,4.2,2.76,9.07,2.68,13.77v30.75h-15.6v-26.9c0-3.06-.07-6.28-1.5-9.06-2-4.32-8.05-5.1-11.7-2.55-3,2-4.47,5.78-4.5,9.33v29.2H246.84c0-16.95,0-33.9,0-50.84,5.22.1,10.44,0,15.67.08,0,2.7-.06,5.4,0,8.1a19.9,19.9,0,0,1,7.38-7.25Zm-44.32-.85c5.24,0,10.5-.1,15.73,0v50.73c-5.23,0-10.48,0-15.72,0V408.44Zm-22,27.19a13.53,13.53,0,0,1,8.33.92c3.52,1.78,6.46,5.12,7,9.12a12.68,12.68,0,0,1-.6,6,12.3,12.3,0,0,1-9.35,7.64,13.92,13.92,0,0,1-7.2-.82,11.76,11.76,0,0,1-7.07-10.86,12,12,0,0,1,8.87-12.05Z" transform="translate(-189.52 -372.19)"/><path class="cls-2" d="M208.62,372.25c9.6-.15,19.2,0,28.8-.06h132.1a20.88,20.88,0,0,1,15.4,7.27,21.47,21.47,0,0,1,5.08,14.7V447.7A21.37,21.37,0,0,1,385,462.33a20.9,20.9,0,0,1-15,7.3H211.62a21,21,0,0,1-22.1-21.16c0-18.76,0-37.5,0-56.26a21.33,21.33,0,0,1,4.53-12.1,20.93,20.93,0,0,1,14.54-7.83m106.62,12.6a17.65,17.65,0,0,0-10,12.34c-.9,3.7-.25,7.52-.6,11.26-2.82-.16-5.64,0-8.45-.13,0,3.9,0,7.78,0,11.68,2.85,0,5.7,0,8.56,0,0,13,0,26.07,0,39.1,5.2,0,10.43,0,15.65,0q0-19.57,0-39.13,5.74,0,11.52,0c-3,5.7-3.54,12.38-2.82,18.7a24,24,0,0,0,8.63,16.06c5.57,4.6,13.1,5.92,20.15,5.6,6.13-.24,12.4-2,17.12-6.1a24.83,24.83,0,0,0,8.37-15.95c.7-5.93.42-12.2-2.26-17.68a23.18,23.18,0,0,0-13.8-12,37.88,37.88,0,0,0-19-.66A24.29,24.29,0,0,0,332,419.88c-.08-3.82,0-7.63,0-11.45-3.84,0-7.7-.1-11.53,0-.1-2.18-.06-4.37,0-6.55.1-2.5,1.22-5.17,3.6-6.25,3.1-1.4,6.64-.66,9.73.4,0-4.05,0-8.1,0-12.14a19.79,19.79,0,0,0-5.08-1c-4.54-.3-9.26,0-13.44,1.94m-85-.13a7.92,7.92,0,0,0-5.23,4.73,8.1,8.1,0,0,0,1.07,7.5c3,4,9.24,4.5,13.25,1.82s4.45-9,1-12.14c-2.65-2.5-6.7-2.8-10.07-1.9M270,409.28a19.85,19.85,0,0,0-7.38,7.26c-.08-2.7,0-5.42,0-8.12-5.24-.08-10.46,0-15.68-.1,0,16.95,0,33.9,0,50.84h15.7c0-9.73,0-19.47,0-29.2,0-3.54,1.46-7.27,4.47-9.3,3.66-2.56,9.75-1.78,11.72,2.54,1.4,2.78,1.5,6,1.48,9.05,0,9,0,17.95,0,26.92h15.6V428.42c.08-4.7-.47-9.57-2.7-13.78a13.26,13.26,0,0,0-8.25-6.7,20.69,20.69,0,0,0-14.93,1.33m-44.32-.85v50.74h15.73V408.43c-5.23-.12-10.48,0-15.72,0m-22,27.2a12,12,0,0,0-8.87,12,11.75,11.75,0,0,0,7.08,10.86,13.92,13.92,0,0,0,7.2.83,12.27,12.27,0,0,0,9.36-7.63,13.06,13.06,0,0,0,.6-6,12.68,12.68,0,0,0-7-9.13,13.46,13.46,0,0,0-8.33-.93ZM353.58,419.5c3.52-.62,7.56-.28,10.33,2.22s3.53,6.26,3.77,9.77c.12,3.86,0,7.9-1.73,11.45a9.39,9.39,0,0,1-6.88,5.23c-3.48.52-7.42.18-10.2-2.2s-3.72-6-4-9.47c-.3-4.05-.1-8.35,1.93-12a10.18,10.18,0,0,1,6.78-5Z" transform="translate(-189.52 -372.19)"/></svg>