<svg id="Layer_1" data-name="Layer 1" xmlns="http://www.w3.org/2000/svg" viewBox="0 0 276.71 111.15"><defs><style>.cls-1{fill:#fdcd12;}.cls-2{fill:#231f20;}</style></defs><title>net</title><g id="Group_564" data-name="Group 564"><path id="path36" class="cls-1" d="M196.49,458.3a18.43,18.43,0,1,1-18.42-18.44,18.44,18.44,0,0,1,18.42,18.44h0" transform="translate(-159.63 -366.07)"/><path id="path38" class="cls-2" d="M284.08,466.83c0,5.37-2.6,8-8,8H264.35c-5.37,0-8-2.6-8-8V419.05c0-6.4-2.25-10.73-9.69-10.73a30.17,30.17,0,0,0-15.4,4.52v54c0,5.37-2.6,8-8,8H211.55c-5.37,0-8-2.6-8-8v-70.6c0-5.36,2.6-8,8-8h4.33c3.82,0,5.37,1.9,7.79,6.24a59.3,59.3,0,0,1,30.17-8.67c23.54,0,30.3,12.47,30.3,29.08Z" transform="translate(-159.63 -366.07)"/><path id="path40" class="cls-2" d="M362.34,440.69H319.23c-.69,11.26,5.19,14.55,18.7,14.55a65.09,65.09,0,0,0,19.38-2.43c6.92-1.51,10.89,2.6,10.89,7.79v3.29c0,4.68-1.73,7.54-6.23,9.17a93.21,93.21,0,0,1-27.7,4.15c-28.57,0-42.42-14.54-42.42-45.7s13.67-45.71,40.52-45.71c33.4,0,38.6,22.5,37.92,46.91,0,5.19-2.6,8-8,8m-43.09-17h24.58c1.51-9.52-.51-17.14-11.07-17.14-9.34,0-13.51,6.23-13.51,17.14" transform="translate(-159.63 -366.07)"/><path id="path42" class="cls-2" d="M387.09,377.67c0-5,2.06-6.93,8.31-8.67l9.05-2.43c7.17-1.89,10.34,1.75,10.34,7.05v14.55h13.58c5.37,0,8,2.6,8,8v7.1c0,5.38-2.6,8-8,8H414.79v33.11c0,6.76,2.6,10.56,11.42,10.56H428a7.13,7.13,0,0,1,7.43,6.83,3.23,3.23,0,0,1,0,.44v5.7a8.51,8.51,0,0,1-7.09,8.66,41.47,41.47,0,0,1-7.78.7c-24.59,0-33.41-10.22-33.41-30.65V411.25h-6.75c-5.37,0-8-2.6-8-8v-4c0-4.53,1.9-6.74,6.92-8.13l7.79-2.08Z" transform="translate(-159.63 -366.07)"/></g></svg>