<svg id="Layer_1" data-name="Layer 1" xmlns="http://www.w3.org/2000/svg" viewBox="0 0 244.99 58.39"><defs><style>.cls-1{fill:#1aa74b;}.cls-2{fill:#53bb69;}</style></defs><title>online</title><g id="Group_578" data-name="Group 578"><path id="Path_1228" data-name="Path 1228" d="M678.48,382.18c0-4-.22-7.34-.22-10.24h8.68l.45,4.45h.22a12.08,12.08,0,0,1,10-5.12c6.68,0,11.58,4.46,11.58,13.8v19.16h-10V386.41c0-4.23-1.34-6.9-5.12-6.9A5.62,5.62,0,0,0,689,383.3a7.86,7.86,0,0,0-.45,2.45v18.48h-10Z" transform="translate(-562.4 -356.3)"/><path id="Path_1229" data-name="Path 1229" d="M713.66,357.25h10V404h-10Z" transform="translate(-562.4 -356.3)"/><path id="Path_1230" data-name="Path 1230" d="M738.82,362.81c0,2.68-2,4.9-5.34,4.9-3.12,0-5.35-2.22-5.13-4.9a5,5,0,0,1,4.81-5.13,4.87,4.87,0,0,1,.54,0C736.81,357.92,738.82,359.92,738.82,362.81ZM728.58,404V371.94h10v32.29h-10Z" transform="translate(-562.4 -356.3)"/><path id="Path_1231" data-name="Path 1231" d="M743.27,382.18c0-4-.22-7.34-.22-10.24h8.68l.45,4.45h.22a12.08,12.08,0,0,1,10-5.12c6.68,0,11.58,4.46,11.58,13.8v19.16H764V386.41c0-4.23-1.34-6.9-5.12-6.9a5.62,5.62,0,0,0-5.12,3.79,7.86,7.86,0,0,0-.45,2.45v18.48h-10Z" transform="translate(-562.4 -356.3)"/><path id="Path_1232" data-name="Path 1232" d="M786.24,391.09c.22,4.23,4.45,6,9.13,6a27.8,27.8,0,0,0,8.91-1.34l1.33,6.68a31.35,31.35,0,0,1-11.58,2c-10.91,0-17.14-6.23-17.14-16.47,0-8.24,5.12-17.15,16.25-17.15,10.47,0,14.25,8,14.25,16,0,1.79-.22,3.12-.22,4H786.24Zm11.8-6.9c0-2.45-1.11-6.46-5.56-6.46-4.23,0-6,3.79-6.24,6.46Z" transform="translate(-562.4 -356.3)"/><path id="Path_1233" data-name="Path 1233" d="M659.11,371.05c-10.24,0-17.14,6.68-17.14,17.15v.89a10.48,10.48,0,0,1,4.9,8.9,9.18,9.18,0,0,1-.23,2.45c2.9,2.9,7.13,4.45,12,4.45,8.68,0,16.92-5.34,16.92-17.14C675.59,378,668.91,371.05,659.11,371.05Zm-.22,26.5c-4.23,0-6.68-4.23-6.68-9.58,0-4.67,1.78-9.57,6.68-9.57,4.45,0,6.46,4.9,6.46,9.57C665.12,393.76,662.67,397.55,658.89,397.55Z" transform="translate(-562.4 -356.3)"/><circle id="Ellipse_193" data-name="Ellipse 193" cx="74.67" cy="41.25" r="6.9"/><path id="Path_1234" data-name="Path 1234" d="M591.65,370.38a15.11,15.11,0,0,0-11.13,4.9,14.71,14.71,0,0,0-3.79,10,15.19,15.19,0,0,0,15.14,15.14,15.45,15.45,0,0,0,8.24-2.45,15,15,0,0,0,2.89-2.45,14.69,14.69,0,0,0,3.79-10A15.31,15.31,0,0,0,591.65,370.38Zm4.9,3.57a13,13,0,0,1,3.34,2c-.67-.23-1.56-.45-2.45-.67-.23-.44-.67-.89-.89-1.33Zm-3.34-.9a14.14,14.14,0,0,1,2,1.79,10.92,10.92,0,0,0-2.67-.23v-1.78a.83.83,0,0,0,.67.23Zm-2.45,9.58v5.56a36.48,36.48,0,0,0-5.12.45,14.17,14.17,0,0,1-.22-3.12v-2.45a38.08,38.08,0,0,1,5.34-.44Zm-5.12-1.34a15,15,0,0,1,1.33-4.45,19.41,19.41,0,0,1,3.79-.44v4.45A36.47,36.47,0,0,0,585.64,381.29Zm6.9,1.34a41.49,41.49,0,0,1,5.34.44,10,10,0,0,0,.22,2.45,14.17,14.17,0,0,1-.22,3.12,35.4,35.4,0,0,0-5.34-.44Zm0-1.78v-4.46a20,20,0,0,1,3.78.45,14.77,14.77,0,0,1,1.34,4.45,40,40,0,0,0-5.12-.44Zm-2.9-7.79h0a1.68,1.68,0,0,1,.9-.23v1.78a11,11,0,0,0-2.68.23Zm-4.9,2c.67-.45,1.34-.67,2-1.12-.22.45-.66.89-.89,1.34-.89.22-1.78.44-2.45.67a3.46,3.46,0,0,1,1.35-.89Zm-4.23,4.67a16.53,16.53,0,0,1,2-1.33,8,8,0,0,1,2.45-.9,26.21,26.21,0,0,0-1.11,4.46c-.89.22-1.56.44-2.23.67a24.34,24.34,0,0,0-2.44,1.11,10.63,10.63,0,0,1,1.34-4ZM579,386a7.36,7.36,0,0,1,3.11-2,3.2,3.2,0,0,1,1.56-.45v2a17.75,17.75,0,0,0,.22,3.34c-.44,0-.66.22-.89.22a8.87,8.87,0,0,0-2.89,1.12A13.23,13.23,0,0,1,579,386Zm7.57,10.91a12.92,12.92,0,0,1-5.79-5.13,13.22,13.22,0,0,1,2.45-1.11c.22,0,.44-.22.66-.22a19.71,19.71,0,0,0,2.68,6.46Zm3.56,1.11c-1.78-1.11-3.34-4-4.23-7.57a33.56,33.56,0,0,1,4.9-.45v8Zm3.34-.22a1.73,1.73,0,0,1-.89.22v-8a32.22,32.22,0,0,1,4.9.44,12.46,12.46,0,0,1-2.9,6.46,4.77,4.77,0,0,1-1.11.89Zm5.12-1.79c-.67.45-1.34.67-2,1.12a15.71,15.71,0,0,0,2.45-6.46,8.41,8.41,0,0,1,3.34,1.11A13.58,13.58,0,0,1,598.55,396Zm5.57-10a13.05,13.05,0,0,1-.89,4.23,25.42,25.42,0,0,0-3.79-1.33,16.22,16.22,0,0,0,.22-3.34v-2c2,.66,3.79,1.56,4.46,2.45Zm-.23-2.44a24.07,24.07,0,0,0-4.67-2,25.32,25.32,0,0,0-1.12-4.46,16.94,16.94,0,0,1,4.46,2.23,8.47,8.47,0,0,1,1.33,4.23Z" transform="translate(-562.4 -356.3)"/><g id="Group_577" data-name="Group 577"><path id="Path_1235" data-name="Path 1235" class="cls-1" d="M574.51,409.35V398.88a14.07,14.07,0,0,0,1.78,2l13.8,13.8A29.17,29.17,0,0,1,574.51,409.35Z" transform="translate(-562.4 -356.3)"/><path id="Path_1236" data-name="Path 1236" class="cls-1" d="M608.79,372.61a21.46,21.46,0,0,1-2,28.28,22.13,22.13,0,0,1-18,6.23l7.57,7.57a30.11,30.11,0,0,0,16-8.24,29.33,29.33,0,0,0,2.23-39Z" transform="translate(-562.4 -356.3)"/><path id="Path_1237" data-name="Path 1237" class="cls-2" d="M569.83,385.52a21.6,21.6,0,0,1,37-15.36c.67.67,1.33,1.56,2,2.23l5.56-5.35a21.44,21.44,0,0,0-2.22-2.45,29.3,29.3,0,0,0-42.08,40.75V385.52Z" transform="translate(-562.4 -356.3)"/><g id="Group_576" data-name="Group 576"><path id="Path_1238" data-name="Path 1238" d="M589,386.19C588.75,386.19,588.75,386,589,386.19Z" transform="translate(-562.4 -356.3)"/></g></g></g></svg>