<svg id="Layer_1" data-name="Layer 1" xmlns="http://www.w3.org/2000/svg" viewBox="0 0 279.33 94.19"><defs><style>.cls-1{fill:#163b4f;}.cls-2{fill:#92a4ad;}.cls-3{fill:#f48420;}.cls-4{fill:#f48522;}.cls-5{fill:#f48421;}</style></defs><title>org</title><g id="aaEZuJ.tif"><path id="Path_1125" data-name="Path 1125" class="cls-1" d="M277.49,386.6l2.8.4a35.5,35.5,0,0,1,22.1,12.31A36.53,36.53,0,1,1,239.62,432a36.94,36.94,0,0,1,25.21-43.85c2.24-.66,4.6-.91,6.91-1.36l.43-.14Zm11.81,36c-.07-.77-.14-2.18-.37-3.54a19.22,19.22,0,0,0-6-11.5c-3.67-3.29-7.89-4.32-12.56-2.48A14.68,14.68,0,0,0,263,412a23.12,23.12,0,0,0-2.56,14.79,20.09,20.09,0,0,0,4.9,11,12.33,12.33,0,0,0,9,4.49c4.26.13,7.59-1.82,10.22-5,3.35-4,4.66-8.82,4.74-14.62Z" transform="translate(-152.71 -386.6)"/><path id="Path_1126" data-name="Path 1126" class="cls-2" d="M431.91,387.57a.15.15,0,0,1,.13,0v60.9h-.11c0-.11,0-.23,0-.35V405.88Q431.91,396.73,431.91,387.57Z" transform="translate(-152.71 -386.6)"/><path id="Path_1127" data-name="Path 1127" class="cls-1" d="M431.91,387.57v60.57a2.16,2.16,0,0,0,0,.35,36.74,36.74,0,0,1-3.6,15.31c-3.21,6.4-8.35,10.67-14.83,13.49a43.66,43.66,0,0,1-11.07,2.79,62.6,62.6,0,0,1-13.19.59,54,54,0,0,1-24.3-7.36c-.76-.44-1.5-.91-2.3-1.4l8.18-14.72c1.57.81,3.11,1.6,4.62,2.4a40.32,40.32,0,0,0,13.76,4.19,39.17,39.17,0,0,0,14.49-2c4.86-2,7.34-5.77,7.9-10.88.17-1.52.17-3,.25-4.76-.68.59-1.18,1.05-1.73,1.48a28.18,28.18,0,0,1-18.68,6.5c-8.61-.18-15.7-3.78-21.39-10.16a33.05,33.05,0,0,1-8.21-18.12c-1.29-10,1-19.14,7.31-27.08a28.54,28.54,0,0,1,19.12-11,28.12,28.12,0,0,1,22.72,7c.22.18.42.37.72.63v-7.88c.25,0,.43-.05.59-.05h19A5.48,5.48,0,0,1,431.91,387.57ZM412.46,421a18,18,0,0,0-3.67-11.19,14.35,14.35,0,0,0-22.09-1.3,18,18,0,0,0,.11,24.42,14.17,14.17,0,0,0,20,.67l.1-.08A17,17,0,0,0,412.46,421Z" transform="translate(-152.71 -386.6)"/><path id="Path_1128" data-name="Path 1128" class="cls-1" d="M337.13,457.59H317V388.77h20.15v7c.18-.21.28-.29.36-.39a18,18,0,0,1,16.06-7.69c2.17.09,4.33.46,6.58.72-1.14,6.92-2.25,13.65-3.35,20.3A31.7,31.7,0,0,0,353,408c-4.55-.37-8.61.78-11.82,4.14a16.28,16.28,0,0,0-3.94,8.57,9.22,9.22,0,0,0-.14,1.66v35.25Z" transform="translate(-152.71 -386.6)"/><path id="Path_1129" data-name="Path 1129" class="cls-3" d="M167.54,423.43a8.28,8.28,0,0,1,2.43-6c4.44-4.46,8.87-8.94,13.37-13.36a8.35,8.35,0,0,1,11.81,0l.1.11,13.14,13.17a8.42,8.42,0,0,1,.26,11.89h0l-.25.26-13,13a8.4,8.4,0,0,1-11.87.32c-.12-.1-.22-.21-.33-.32q-6.63-6.53-13.19-13.13A8.17,8.17,0,0,1,167.54,423.43Z" transform="translate(-152.71 -386.6)"/><path id="Path_1130" data-name="Path 1130" class="cls-4" d="M213.25,441.67a14.47,14.47,0,0,0,1-5.51V410.63a12.42,12.42,0,0,0-.95-5.18,5.41,5.41,0,0,1-.12-.55l.59.5c2.65,2.65,5.32,5.32,7.95,8a14.2,14.2,0,0,1,.11,19.81c-2.67,2.74-5.4,5.42-8.1,8.13C213.58,441.44,213.42,441.56,213.25,441.67Z" transform="translate(-152.71 -386.6)"/><path id="Path_1131" data-name="Path 1131" class="cls-4" d="M170.81,447.22a16.73,16.73,0,0,0,7.24,1.18c7.91,0,15.82,0,23.72,0a13,13,0,0,0,5.71-1.12,1.27,1.27,0,0,1,.28,0c-.19.2-.32.35-.45.5-2.59,2.58-5.19,5.17-7.77,7.77a14,14,0,0,1-9.83,4.35,13.81,13.81,0,0,1-10.49-4.14c-2.74-2.7-5.45-5.43-8.16-8.16a1.58,1.58,0,0,1-.24-.39Z" transform="translate(-152.71 -386.6)"/><path id="Path_1132" data-name="Path 1132" class="cls-5" d="M165.36,441.74a2.89,2.89,0,0,1-.44-.27l-7.84-7.89a14.15,14.15,0,0,1-.46-20l.46-.46,7.47-7.55a1.6,1.6,0,0,1,.67-.44,2.43,2.43,0,0,1-.14.48,12.17,12.17,0,0,0-.87,4.5v26.44a13.8,13.8,0,0,0,1.15,5.21Z" transform="translate(-152.71 -386.6)"/><path id="Path_1133" data-name="Path 1133" class="cls-5" d="M170.9,399.27c1.39-1.41,2.76-2.83,4.17-4.22,1.67-1.67,3.27-3.4,5.05-4.91a14.08,14.08,0,0,1,18.81.48c2.83,2.72,5.55,5.53,8.33,8.3.11.12.19.25.37.48a4.31,4.31,0,0,1-.59-.16,12.61,12.61,0,0,0-5.11-.95H176.46a14.68,14.68,0,0,0-5.51,1.1Z" transform="translate(-152.71 -386.6)"/><path id="Path_1134" data-name="Path 1134" class="cls-5" d="M165.35,441.76" transform="translate(-152.71 -386.6)"/><path id="Path_1135" data-name="Path 1135" class="cls-4" d="M170.82,447.2h-.12l0-.06.08.09Z" transform="translate(-152.71 -386.6)"/><path id="Path_1136" data-name="Path 1136" class="cls-5" d="M171,399.37l-.15.05.07-.14Z" transform="translate(-152.71 -386.6)"/><path id="Path_1137" data-name="Path 1137" class="cls-5" d="M207.69,399.37l0,0s0,0,0,0,0,0,0-.05Z" transform="translate(-152.71 -386.6)"/><path id="Path_1138" data-name="Path 1138" class="cls-4" d="M213.19,404.88v0l-.05,0,0,0Z" transform="translate(-152.71 -386.6)"/></g></svg>