<svg id="Layer_1" data-name="Layer 1" xmlns="http://www.w3.org/2000/svg" viewBox="0 0 225 62.4"><defs><style>.cls-1{fill:#1aadb2;}.cls-2{fill:#424443;}</style></defs><title>store</title><circle id="Ellipse_189" data-name="Ellipse 189" class="cls-1" cx="8.59" cy="53.15" r="8.59"/><path id="Path_1144" data-name="Path 1144" class="cls-2" d="M232,582.35c0,11.45,6,15.91,16.23,15.91h22.6a28.64,28.64,0,0,1-11.14-14.64h-6c-3.18,0-4.77-1.27-4.77-4.78V561.66H259V548H248.83V536.52H232Z" transform="translate(-179.13 -536.52)"/><path id="Path_1145" data-name="Path 1145" class="cls-2" d="M263.15,573.12A25.65,25.65,0,0,1,289,547.63h0c.3,0,.61,0,.91,0,15.59,0,26.73,11.45,26.73,25.14v.32a25.84,25.84,0,0,1-26.2,25.47l-.52,0C274.61,598.26,263.15,587.12,263.15,573.12Zm36.92,0A10.51,10.51,0,0,0,290.23,562h-.35a10.22,10.22,0,0,0-10.2,10.23c0,.2,0,.39,0,.59v.32a10.22,10.22,0,0,0,9.59,10.8h.59a10,10,0,0,0,10.22-9.83c0-.32,0-.66,0-1Zm-89.43-6.69c-5.09-1.27-8-2.22-8-4.13V562c0-1.27,1.27-2.23,3.82-2.23a31.73,31.73,0,0,1,14.32,4.46l5.73-10.82a37.9,37.9,0,0,0-20.05-5.73c-11.14,0-19.41,5.73-19.41,15.91v.32c0,9.86,7.64,13.05,17.18,15.59,5.09,1.27,7.64,2.23,7.64,4.14v.32c0,1.59-1.27,2.55-4.14,2.55a24.16,24.16,0,0,1-8-1.28,10.63,10.63,0,0,1,1,4.78,10.07,10.07,0,0,1-2.86,7.32,49.5,49.5,0,0,0,9.55,1.27c11.77,0,19.73-5.41,19.73-16.23V582C227.82,572.48,220.19,569.3,210.64,566.43Zm141-.63c-8.91,0-14,5.09-14,16.23v16.23H320.75V548.61h16.87v9.87A15.23,15.23,0,0,1,353.21,548h11.46a23.74,23.74,0,0,0-12.41,17.82Z" transform="translate(-179.13 -536.52)"/><path id="Path_1146" data-name="Path 1146" class="cls-2" d="M383.76,585.85a10.07,10.07,0,0,1-10.5-8h17.5c12.73,0,13.05-12.73,13.05-12.73v-.64a12.78,12.78,0,0,0-7.32-.95v.64a6.36,6.36,0,0,1-6.36,6.36H374.22a3.18,3.18,0,0,1-3.19-3.18v-6.68a3.19,3.19,0,0,1,3.19-3.19h15.91a5.87,5.87,0,0,1,6.05,4.46,15.89,15.89,0,0,1,7.32.95c-1-10.82-9.23-15.27-22.28-15.27a24.33,24.33,0,0,0-24.53,24.16h0c0,.43,0,.86,0,1.3v.32c0,15.27,10.82,25.46,26.1,25.46A25.46,25.46,0,0,0,404.13,589l-9.54-8A15.31,15.31,0,0,1,383.76,585.85Z" transform="translate(-179.13 -536.52)"/><path id="Path_1147" data-name="Path 1147" class="cls-2" d="M393,564.21c0,.31-.32.63-.95.63a1,1,0,1,1-.06-1.91H392c.32,0,.32,0,.63.32s.64-.32,1-.32c0-.63-.64-.95-1.27-.95a2.05,2.05,0,0,0-1.91,1.91,1.91,1.91,0,0,0,3.82,0h0C393.63,563.89,393.31,563.89,393,564.21Z" transform="translate(-179.13 -536.52)"/></svg>