<svg id="Layer_1" data-name="Layer 1" xmlns="http://www.w3.org/2000/svg" viewBox="0 0 314.98 66.76"><defs><style>.cls-1{fill:#3d3d3d;}.cls-2{fill:#39a1da;}.cls-3{fill:#31b9ea;}</style></defs><title>website</title><g id="Group_575" data-name="Group 575"><path id="Path_1222" data-name="Path 1222" class="cls-1" d="M287.35,429.54c.26,4.75,5,6.86,10.27,6.86a28.46,28.46,0,0,0,10-1.58l1.58,7.64A34.72,34.72,0,0,1,296,444.83c-12.38,0-19.5-7.12-19.5-18.71,0-9.23,5.8-19.5,18.45-19.5,11.86,0,16.34,9.22,16.34,18.18,0,1.85-.26,3.69-.26,4.48H287.35Zm13.17-7.64c0-2.9-1.31-7.38-6.32-7.38a7.46,7.46,0,0,0-7.12,7.38ZM314,444.3c.26-2.37.26-6.85.26-11.07V391.06h11.33v20.82h.27a12.91,12.91,0,0,1,11.07-5.27c8.7,0,15.28,7.38,15,18.45,0,13.18-8.43,19.77-16.87,19.77A12.51,12.51,0,0,1,324,439h-.26l-.53,5H314Zm11.6-15.55a5.6,5.6,0,0,0,.26,2.11,6.75,6.75,0,0,0,6.59,5.27c4.74,0,7.91-3.69,7.91-10.28,0-5.8-2.64-10.28-7.91-10.28a7,7,0,0,0-6.59,5.54c0,.79-.26,1.31-.26,2.1Zm29.78,5.54a21.35,21.35,0,0,0,9.75,2.9c3.43,0,4.74-1.32,4.74-3.17s-1-2.9-5.27-4.21c-7.64-2.64-10.54-6.59-10.54-11.07,0-6.86,5.8-11.86,15-11.86a25.06,25.06,0,0,1,10.28,2.1l-2.11,7.91a19.28,19.28,0,0,0-7.9-2.11c-2.9,0-4.22,1.06-4.22,2.9s1.32,2.64,5.8,4.22c6.85,2.37,10,5.8,10,11.33,0,6.86-5.28,11.86-15.82,11.86a25.65,25.65,0,0,1-11.86-2.63Zm40.59-36.9a5.75,5.75,0,0,1-5.7,5.8h-.31a5.28,5.28,0,0,1-5.8-4.69h0a6.86,6.86,0,0,1,0-1.11,5.64,5.64,0,0,1,5.27-5.83h.66a5.85,5.85,0,0,1,5.87,5.83h0ZM384.07,444.3V407.75h11.34v36.63Zm29.57-47.1v10.55h8.17v8.43h-8.17v13.18c0,4.48,1.06,6.32,4.49,6.32,1.31,0,2.63-.26,3.42-.26v8.7a24.26,24.26,0,0,1-7.38,1.05,11.24,11.24,0,0,1-8.43-3.16c-2.11-2.11-3.16-5.8-3.16-10.81v-15h-4.75v-8.43h4.74v-7.91Zm19.5,32.42c.27,4.74,5,6.85,10.28,6.85a28,28,0,0,0,10-1.58l1.58,7.65a34.72,34.72,0,0,1-13.18,2.37c-12.39,0-19.5-7.12-19.5-18.72,0-9.22,5.8-19.5,18.45-19.5,11.86,0,16.34,9.23,16.34,18.19,0,1.85-.26,3.69-.26,4.48H433.15ZM446.59,422c0-2.9-1.32-7.38-6.33-7.38a7.45,7.45,0,0,0-7.11,7.38Zm-179.8-14.23-3.16,14.5c-.8,4.21-1.59,8.43-2.11,12.38h-.27c-.79-4.21-1.84-8.43-2.63-12.38l-3.69-14.5h-9l-4,15c-.79,3.69-1.84,7.91-2.63,11.86h-.27c-.52-4.22-1.31-8.17-2.1-12.12l-2.9-15H222.77l5.8,19.5A11.12,11.12,0,0,1,236,437.26a10,10,0,0,1-2.37,6.59h10.54l3.69-12.91a59.29,59.29,0,0,0,2.37-11.33h.27a91.18,91.18,0,0,0,2.37,11.33l3.43,12.91h10.8l11.07-36.1Z" transform="translate(-142.15 -389.22)"/><circle id="Ellipse_192" data-name="Ellipse 192" class="cls-1" cx="82.47" cy="48.23" r="7.64"/><path id="Path_1223" data-name="Path 1223" class="cls-1" d="M187,412.15H164.26a2.93,2.93,0,0,0-2.9,2.9v15.28a2.93,2.93,0,0,0,2.9,2.9H187a2.92,2.92,0,0,0,2.9-2.9V415.05a2.62,2.62,0,0,0-2.34-2.9Zm0,17.92H164.26V414.78H187Zm1.32,3.69H163a1.32,1.32,0,0,0,0,2.64h25.3a1.23,1.23,0,0,0,1.31-1.16h0v-.16a1.41,1.41,0,0,0-1.31-1.32Z" transform="translate(-142.15 -389.22)"/><path id="Path_1224" data-name="Path 1224" class="cls-2" d="M195.36,407.75A24.23,24.23,0,0,1,193,439.9,25.23,25.23,0,0,1,172.43,447l8.44,8.43a33.39,33.39,0,0,0,20.82-53.76Z" transform="translate(-142.15 -389.22)"/><path id="Path_1225" data-name="Path 1225" class="cls-2" d="M159.52,441.4l-3.43,3.25v5A32.18,32.18,0,0,0,174,456Z" transform="translate(-142.15 -389.22)"/><path id="Path_1226" data-name="Path 1226" class="cls-2" d="M158.2,440.09c-.79-.8-1.32-1.59-2.11-2.38v7.12l3.43-3.43Z" transform="translate(-142.15 -389.22)"/><path id="Path_1227" data-name="Path 1227" class="cls-3" d="M150.82,422.43a24.52,24.52,0,0,1,41.91-17.32,23.5,23.5,0,0,1,2.64,2.64l6.32-6.06a22,22,0,0,0-2.37-2.64,33.47,33.47,0,0,0-48.5,46.12Z" transform="translate(-142.15 -389.22)"/></g></svg>